{"accessors" : [{"bufferView" : 0, "byteOffset" : 0, "componentType" : 5123, "count" : 72, "type" : "SCALAR", "max" : [71], "min" : [0]}, {"bufferView" : 1, "byteOffset" : 0, "componentType" : 5126, "count" : 72, "type" : "VEC3", "max" : [50, 59.124061584472656, 10], "min" : [0, 0, 0], "name" : "POSITION"}, {"bufferView" : 1, "byteOffset" : 12, "componentType" : 5126, "count" : 72, "type" : "VEC3", "max" : [1.0000042915344238, 1.0000044107437134, 1.0000044107437134], "min" : [-1.0000042915344238, -0.7758599519729614, -1.0000044107437134], "name" : "NORMAL"}], "asset" : {"generator" : "Aspose.3D 23.11.1", "version" : "2.0"}, "buffers" : [{"uri" : "data:application/octet-stream;base64,", "byteLength" : 1880}], "bufferViews" : [{"buffer" : 0, "byteOffset" : 0, "byteLength" : 144, "target" : 34963}, {"buffer" : 0, "byteOffset" : 148, "byteLength" : 1728, "byteStride" : 24, "target" : 34962}], "cameras" : [{"perspective" : {"aspectRatio" : 1.5, "yfov" : 0.6911112070083618, "zfar" : 10000, "znear" : 10.000000149011612}, "type" : "perspective", "name" : "Camera"}], "materials" : [{"name" : "mat0", "pbrMetallicRoughness" : {"baseColorFactor" : [0.7843137383460999, 0.7843137383460999, 0.7843137383460999, 1], "metallicFactor" : 1, "roughnessFactor" : 1}, "emissiveFactor" : [0, 0, 0], "alphaMode" : "OPAQUE", "doubleSided" : false}], "meshes" : [{"primitives" : [{"attributes" : {"POSITION" : 1, "NORMAL" : 2}, "indices" : 0, "material" : 0, "mode" : 4}], "name" : "imagetostl_mesh0"}], "nodes" : [{"camera" : 0, "matrix" : [-65.15581275167911, -44.527139154551755, -61.417049289096546, 0, -32.401349332924404, 89.5395728270982, -30.542085476036892, 0, 68.59207001076241, 8.666908834403258E-06, -72.76761921184276, 0, 735.88916015625, 495.8309326171875, 692.5791015625, 1], "name" : "Camera"}, {"matrix" : [100, 0, 0, 0, 0, -1.6292067955264296E-05, -99.99999999999866, 0, 0, 99.99999999999866, -1.6292067955264296E-05, 0, 0, 0, 0, 1], "mesh" : 0, "name" : "imagetostl_mesh0"}], "scene" : 0, "scenes" : [{"nodes" : [0, 1]}]}